<svg width="51" height="51" viewBox="0 0 51 51" fill="none" xmlns="http://www.w3.org/2000/svg">
<g id="Save" clip-path="url(#clip0_320_89)">
<path id="Vector" d="M36.125 6.375H10.625C8.26625 6.375 6.375 8.2875 6.375 10.625V40.375C6.375 42.7125 8.26625 44.625 10.625 44.625H40.375C42.7125 44.625 44.625 42.7125 44.625 40.375V14.875L36.125 6.375ZM25.5 40.375C21.9725 40.375 19.125 37.5275 19.125 34C19.125 30.4725 21.9725 27.625 25.5 27.625C29.0275 27.625 31.875 30.4725 31.875 34C31.875 37.5275 29.0275 40.375 25.5 40.375ZM31.875 19.125H10.625V10.625H31.875V19.125Z" fill="black"/>
</g>
<defs>
<clipPath id="clip0_320_89">
<rect width="51" height="51" fill="white"/>
</clipPath>
</defs>
</svg>
